<svg width="398" height="398" viewBox="0 0 398 398" fill="none" xmlns="http://www.w3.org/2000/svg">
<path d="M398 199C398 308.74 308.791 398 199.135 398C89.4793 398 0.269836 308.74 0.269836 199H0V0H86.7611V199H87.001C87.0132 222.277 94.2633 244.974 107.746 263.943C121.228 282.912 140.275 297.213 162.245 304.862C184.215 312.512 208.019 313.131 230.356 306.634C252.693 300.137 272.457 286.846 286.906 268.603C301.355 250.361 309.774 228.072 310.994 204.826C312.215 181.581 306.178 158.531 293.719 138.874C281.26 119.217 262.997 103.926 241.464 95.1219C219.93 86.3178 196.192 84.4369 173.542 89.74V1.63C182.027 0.545576 190.571 0.00114327 199.125 0C308.791 0 398 89.26 398 199Z" fill="#007F78"/>
<path d="M173.532 89.74V199H86.991C87.0222 173.699 95.5829 149.149 111.288 129.321C126.993 109.493 148.924 95.5474 173.532 89.74V89.74Z" fill="#007F78"/>
</svg>
