<svg width="464" height="82" viewBox="0 0 464 82" fill="none" xmlns="http://www.w3.org/2000/svg">
<path d="M125.584 20.5348L135.682 48.7701L145.726 20.5348H156.364V59.4652H148.237V48.8235L149.047 30.4545L138.436 59.4652H132.874L122.29 30.4813L123.1 48.8235V59.4652H115V20.5348H125.584Z" fill="#007F78"/>
<path d="M190.683 42.5936H175.132V53.0214H193.383V59.4652H167.032V20.5348H193.329V27.0321H175.132V36.3102H190.683V42.5936Z" fill="#007F78"/>
<path d="M201.729 59.4652V20.5348H213.825C217.281 20.5348 220.368 21.3102 223.086 22.861C225.822 24.3939 227.955 26.5865 229.485 29.4385C231.015 32.2727 231.78 35.4991 231.78 39.1176V40.9091C231.78 44.5276 231.024 47.7451 229.512 50.5615C228.018 53.3779 225.903 55.5615 223.167 57.1123C220.431 58.6631 217.344 59.4474 213.906 59.4652H201.729ZM209.829 27.0321V53.0214H213.744C216.912 53.0214 219.333 51.9964 221.007 49.9465C222.681 47.8966 223.536 44.9643 223.572 41.1497V39.0909C223.572 35.1337 222.744 32.139 221.088 30.107C219.432 28.057 217.011 27.0321 213.825 27.0321H209.829Z" fill="#007F78"/>
<path d="M249.9 59.4652H241.8V20.5348H249.9V59.4652Z" fill="#007F78"/>
<path d="M291.888 46.4973C291.582 50.6863 290.016 53.984 287.19 56.3904C284.382 58.7968 280.674 60 276.066 60C271.026 60 267.057 58.3244 264.159 54.9733C261.279 51.6043 259.839 46.9875 259.839 41.123V38.7433C259.839 35 260.505 31.7023 261.837 28.8503C263.169 25.9982 265.068 23.8146 267.534 22.2995C270.018 20.7665 272.898 20 276.174 20C280.71 20 284.364 21.2032 287.136 23.6096C289.908 26.016 291.51 29.3939 291.942 33.7433H283.842C283.644 31.2299 282.933 29.4118 281.709 28.2888C280.503 27.1479 278.658 26.5775 276.174 26.5775C273.474 26.5775 271.449 27.5401 270.099 29.4652C268.767 31.3725 268.083 34.3405 268.047 38.369V41.3102C268.047 45.5169 268.686 48.5918 269.964 50.5348C271.26 52.4777 273.294 53.4492 276.066 53.4492C278.568 53.4492 280.431 52.8877 281.655 51.7647C282.897 50.6239 283.608 48.8681 283.788 46.4973H291.888Z" fill="#007F78"/>
<path d="M349.026 46.4973C348.72 50.6863 347.154 53.984 344.328 56.3904C341.52 58.7968 337.812 60 333.204 60C328.164 60 324.195 58.3244 321.297 54.9733C318.417 51.6043 316.977 46.9875 316.977 41.123V38.7433C316.977 35 317.643 31.7023 318.975 28.8503C320.307 25.9982 322.206 23.8146 324.672 22.2995C327.156 20.7665 330.036 20 333.312 20C337.848 20 341.502 21.2032 344.274 23.6096C347.046 26.016 348.648 29.3939 349.08 33.7433H340.98C340.782 31.2299 340.071 29.4118 338.847 28.2888C337.641 27.1479 335.796 26.5775 333.312 26.5775C330.612 26.5775 328.587 27.5401 327.237 29.4652C325.905 31.3725 325.221 34.3405 325.185 38.369V41.3102C325.185 45.5169 325.824 48.5918 327.102 50.5348C328.398 52.4777 330.432 53.4492 333.204 53.4492C335.706 53.4492 337.569 52.8877 338.793 51.7647C340.035 50.6239 340.746 48.8681 340.926 46.4973H349.026Z" fill="#007F78"/>
<path d="M380.133 51.4438H365.931L363.231 59.4652H354.618L369.252 20.5348H376.758L391.472 59.4652H382.859L380.133 51.4438ZM368.118 44.9465H377.946L373.005 30.3743L368.118 44.9465Z" fill="#007F78"/>
<path d="M413.291 45.2139H406.838V59.4652H398.739V20.5348H413.345C417.989 20.5348 421.571 21.5597 424.091 23.6096C426.611 25.6595 427.871 28.5561 427.871 32.2995C427.871 34.9554 427.286 37.1747 426.116 38.9572C424.964 40.7219 423.209 42.1301 420.851 43.1818L429.356 59.0909V59.4652H420.662L413.291 45.2139ZM406.838 38.7166H413.372C415.406 38.7166 416.981 38.2086 418.097 37.1925C419.213 36.1586 419.771 34.7415 419.771 32.9412C419.771 31.1052 419.24 29.6613 418.178 28.6096C417.134 27.5579 415.523 27.0321 413.345 27.0321H406.838V38.7166Z" fill="#007F78"/>
<path d="M461.3 42.5936H445.748V53.0214H464V59.4652H437.648V20.5348H463.946V27.0321H445.748V36.3102H461.3V42.5936Z" fill="#007F78"/>
<path d="M82 41C82 63.6097 63.6202 82 41.0278 82C18.4354 82 0.0555944 63.6097 0.0555944 41H0V0H17.8754V41H17.9248C17.9274 45.7959 19.4211 50.4721 22.1989 54.3803C24.9767 58.2884 28.9009 61.2348 33.4274 62.8108C37.9538 64.3868 42.8581 64.5144 47.4603 63.1758C52.0624 61.8372 56.1343 59.0988 59.1113 55.3404C62.0882 51.5819 63.8227 46.9897 64.0742 42.2004C64.3257 37.4111 63.0818 32.6622 60.5149 28.6123C57.948 24.5623 54.1854 21.4119 49.7488 19.598C45.3122 17.7841 40.4215 17.3966 35.7549 18.4891V0.33583C37.503 0.112405 39.2635 0.000235547 41.0257 0C63.6202 0 82 18.3903 82 41Z" fill="#007F78"/>
<path d="M35.7529 18.4891V41H17.9228C17.9292 35.7873 19.693 30.7292 22.9287 26.644C26.1644 22.5589 30.6828 19.6856 35.7529 18.4891V18.4891Z" fill="#007F78"/>
</svg>
